<?xml version="1.0" encoding="UTF-8" standalone="no"?>
<!DOCTYPE svg PUBLIC "-//W3C//DTD SVG 1.1//EN"
 "http://www.w3.org/Graphics/SVG/1.1/DTD/svg11.dtd">
<!-- Generated by graphviz version 2.40.1 (20161225.0304)
 -->
<!-- Title: services Pages: 1 -->
<svg width="312pt" height="293pt"
 viewBox="0.00 0.00 312.00 293.00" xmlns="http://www.w3.org/2000/svg" xmlns:xlink="http://www.w3.org/1999/xlink">
<g id="graph0" class="graph" transform="scale(1 1) rotate(0) translate(4 289)">
<title>services</title>
<polygon fill="#ffffff" stroke="transparent" points="-4,4 -4,-289 308,-289 308,4 -4,4"/>
<g id="clust1" class="cluster">
<title>cluster_0</title>
<polygon fill="none" stroke="#000000" points="8,-8 8,-208 296,-208 296,-8 8,-8"/>
<text text-anchor="middle" x="152" y="-192.8" font-family="Times,serif" font-size="14.00" fill="#000000">dev</text>
</g>
<!-- internal_service (dev) -->
<g id="node1" class="node">
<title>internal_service (dev)</title>
<ellipse fill="none" stroke="#000000" cx="152" cy="-34" rx="112.3801" ry="18"/>
<text text-anchor="middle" x="152" y="-30.3" font-family="Times,serif" font-size="14.00" fill="#000000">internal_service (dev)</text>
</g>
<!-- public_load_balancer (dev) -->
<g id="node2" class="node">
<title>public_load_balancer (dev)</title>
<ellipse fill="none" stroke="#000000" cx="152" cy="-159" rx="135.6761" ry="18"/>
<text text-anchor="middle" x="152" y="-155.3" font-family="Times,serif" font-size="14.00" fill="#000000">public_load_balancer (dev)</text>
</g>
<!-- public_load_balancer (dev)&#45;&gt;internal_service (dev) -->
<g id="edge1" class="edge">
<title>public_load_balancer (dev)&#45;&gt;internal_service (dev)</title>
<path fill="none" stroke="#000000" d="M152,-140.8239C152,-120.2723 152,-86.5472 152,-62.4893"/>
<polygon fill="#000000" stroke="#000000" points="155.5001,-62.198 152,-52.198 148.5001,-62.198 155.5001,-62.198"/>
<text text-anchor="middle" x="180.5" y="-92.8" font-family="Times,serif" font-size="14.00" fill="#000000">(tcp:80)</text>
</g>
<!-- 0.0.0.0/0 (external) -->
<g id="node3" class="node">
<title>0.0.0.0/0 (external)</title>
<ellipse fill="none" stroke="#000000" cx="152" cy="-267" rx="100.1823" ry="18"/>
<text text-anchor="middle" x="152" y="-263.3" font-family="Times,serif" font-size="14.00" fill="#000000">0.0.0.0/0 (external)</text>
</g>
<!-- 0.0.0.0/0 (external)&#45;&gt;public_load_balancer (dev) -->
<g id="edge2" class="edge">
<title>0.0.0.0/0 (external)&#45;&gt;public_load_balancer (dev)</title>
<path fill="none" stroke="#000000" d="M152,-248.6793C152,-231.821 152,-206.5651 152,-187.147"/>
<polygon fill="#000000" stroke="#000000" points="155.5001,-187.0501 152,-177.0502 148.5001,-187.0502 155.5001,-187.0501"/>
<text text-anchor="middle" x="185" y="-219.8" font-family="Times,serif" font-size="14.00" fill="#000000">(tcp:443)</text>
</g>
</g>
</svg>
