<?xml version="1.0" encoding="UTF-8" standalone="no"?>
<!DOCTYPE svg PUBLIC "-//W3C//DTD SVG 1.1//EN"
 "http://www.w3.org/Graphics/SVG/1.1/DTD/svg11.dtd">
<!-- Generated by graphviz version 2.40.1 (20161225.0304)
 -->
<!-- Title: services Pages: 1 -->
<svg width="440pt" height="218pt"
 viewBox="0.00 0.00 439.74 218.00" xmlns="http://www.w3.org/2000/svg" xmlns:xlink="http://www.w3.org/1999/xlink">
<g id="graph0" class="graph" transform="scale(1 1) rotate(0) translate(4 214)">
<title>services</title>
<polygon fill="#ffffff" stroke="transparent" points="-4,4 -4,-214 435.7376,-214 435.7376,4 -4,4"/>
<!-- 0.0.0.0/0 -->
<g id="node1" class="node">
<title>0.0.0.0/0</title>
<ellipse fill="none" stroke="#000000" cx="249.9441" cy="-192" rx="51.9908" ry="18"/>
<text text-anchor="middle" x="249.9441" y="-188.3" font-family="Times,serif" font-size="14.00" fill="#000000">0.0.0.0/0</text>
</g>
<!-- dev.haproxy -->
<g id="node2" class="node">
<title>dev.haproxy</title>
<ellipse fill="none" stroke="#000000" cx="66.9441" cy="-105" rx="66.8882" ry="18"/>
<text text-anchor="middle" x="66.9441" y="-101.3" font-family="Times,serif" font-size="14.00" fill="#000000">dev.haproxy</text>
</g>
<!-- 0.0.0.0/0&#45;&gt;dev.haproxy -->
<g id="edge1" class="edge">
<title>0.0.0.0/0&#45;&gt;dev.haproxy</title>
<path fill="none" stroke="#000000" d="M209.9513,-180.4038C190.5075,-174.1718 167.0528,-165.7605 146.9441,-156 130.3782,-147.9591 113.0242,-137.2149 98.7297,-127.662"/>
<polygon fill="#000000" stroke="#000000" points="100.4967,-124.631 90.2591,-121.9027 96.5608,-130.4198 100.4967,-124.631"/>
<text text-anchor="middle" x="175.4441" y="-144.8" font-family="Times,serif" font-size="14.00" fill="#000000">(tcp:80)</text>
</g>
<!-- dev.public -->
<g id="node3" class="node">
<title>dev.public</title>
<ellipse fill="none" stroke="#000000" cx="209.9441" cy="-105" rx="57.6901" ry="18"/>
<text text-anchor="middle" x="209.9441" y="-101.3" font-family="Times,serif" font-size="14.00" fill="#000000">dev.public</text>
</g>
<!-- 0.0.0.0/0&#45;&gt;dev.public -->
<g id="edge2" class="edge">
<title>0.0.0.0/0&#45;&gt;dev.public</title>
<path fill="none" stroke="#000000" d="M226.3049,-175.761C220.1742,-170.2588 214.3445,-163.5638 210.9441,-156 207.7985,-149.0031 206.6673,-140.902 206.5472,-133.2449"/>
<polygon fill="#000000" stroke="#000000" points="210.0458,-133.3463 206.9162,-123.2243 203.0505,-133.0887 210.0458,-133.3463"/>
<text text-anchor="middle" x="239.4441" y="-144.8" font-family="Times,serif" font-size="14.00" fill="#000000">(tcp:80)</text>
</g>
<!-- dev.haproxy2 -->
<g id="node4" class="node">
<title>dev.haproxy2</title>
<ellipse fill="none" stroke="#000000" cx="358.9441" cy="-105" rx="72.5877" ry="18"/>
<text text-anchor="middle" x="358.9441" y="-101.3" font-family="Times,serif" font-size="14.00" fill="#000000">dev.haproxy2</text>
</g>
<!-- 0.0.0.0/0&#45;&gt;dev.haproxy2 -->
<g id="edge3" class="edge">
<title>0.0.0.0/0&#45;&gt;dev.haproxy2</title>
<path fill="none" stroke="#000000" d="M261.3448,-174.4159C268.8419,-163.8097 279.3812,-150.5488 290.9441,-141 297.8288,-135.3145 305.7544,-130.1436 313.7077,-125.6063"/>
<polygon fill="#000000" stroke="#000000" points="315.5234,-128.6032 322.6452,-120.759 312.1861,-122.4499 315.5234,-128.6032"/>
<text text-anchor="middle" x="319.4441" y="-144.8" font-family="Times,serif" font-size="14.00" fill="#000000">(tcp:80)</text>
</g>
<!-- 0.0.0.0/0&#45;&gt;dev.haproxy2 -->
<g id="edge4" class="edge">
<title>0.0.0.0/0&#45;&gt;dev.haproxy2</title>
<path fill="none" stroke="#000000" d="M297.4576,-184.629C315.6526,-179.4894 335.1012,-170.7738 347.9441,-156 353.3759,-149.7515 356.3311,-141.4632 357.8859,-133.3884"/>
<polygon fill="#000000" stroke="#000000" points="361.36,-133.8136 359.1872,-123.444 354.4192,-132.9053 361.36,-133.8136"/>
<text text-anchor="middle" x="384.4441" y="-144.8" font-family="Times,serif" font-size="14.00" fill="#000000">(tcp:22)</text>
</g>
<!-- dev.internal -->
<g id="node5" class="node">
<title>dev.internal</title>
<ellipse fill="none" stroke="#000000" cx="212.9441" cy="-18" rx="65.7887" ry="18"/>
<text text-anchor="middle" x="212.9441" y="-14.3" font-family="Times,serif" font-size="14.00" fill="#000000">dev.internal</text>
</g>
<!-- dev.haproxy&#45;&gt;dev.internal -->
<g id="edge5" class="edge">
<title>dev.haproxy&#45;&gt;dev.internal</title>
<path fill="none" stroke="#000000" d="M94.7492,-88.4312C117.9882,-74.5833 151.3014,-54.7322 176.6415,-39.6324"/>
<polygon fill="#000000" stroke="#000000" points="178.4436,-42.6328 185.2424,-34.5071 174.8603,-36.6195 178.4436,-42.6328"/>
<text text-anchor="middle" x="177.4441" y="-57.8" font-family="Times,serif" font-size="14.00" fill="#000000">(tcp:80)</text>
</g>
<!-- dev.haproxy2&#45;&gt;dev.internal -->
<g id="edge6" class="edge">
<title>dev.haproxy2&#45;&gt;dev.internal</title>
<path fill="none" stroke="#000000" d="M330.7938,-88.2255C307.6206,-74.4168 274.6029,-54.7419 249.4083,-39.7287"/>
<polygon fill="#000000" stroke="#000000" points="250.8949,-36.5403 240.5128,-34.4279 247.3116,-42.5536 250.8949,-36.5403"/>
<text text-anchor="middle" x="323.4441" y="-57.8" font-family="Times,serif" font-size="14.00" fill="#000000">(tcp:80)</text>
</g>
</g>
</svg>
